<svg width="32" height="32" viewBox="0 0 32 32" fill="none" xmlns="http://www.w3.org/2000/svg">
	<circle cx="16" cy="16" r="16" fill="#D9D9D9" />
	<path d="M27.0993 12.7649L26.4245 13.8448C26.3557 13.9549 26.2111 13.9883 26.101 13.9195L23.5008 12.2947C23.3907 12.2259 23.3573 12.0813 23.4261 11.9712L24.1009 10.8913C24.3746 10.4532 24.9532 10.3197 25.3931 10.5929L26.801 11.4727C27.2409 11.746 27.3745 12.3245 27.0993 12.7649ZM22.8464 12.8988L19.0026 19.0503L19.133 21.4557C19.1498 21.7806 19.4844 21.988 19.7842 21.8627L22.0029 20.9235L25.8468 14.772C25.9156 14.6619 25.8822 14.5173 25.7721 14.4485L23.1719 12.8237C23.0599 12.7553 22.9152 12.7887 22.8464 12.8988ZM20.8545 18.1717C20.7256 18.0912 20.687 17.9237 20.7675 17.7949L23.0217 14.1874C23.1022 14.0586 23.2696 14.0199 23.3985 14.1004C23.5273 14.1809 23.566 14.3484 23.4855 14.4772L21.2313 18.0847C21.1508 18.2135 20.9833 18.2522 20.8545 18.1717ZM20.5369 19.9309L21.4504 19.72L21.6099 20.4108L20.4321 20.9093L19.7035 20.454L19.6352 19.1768L20.326 19.0174L20.5369 19.9309Z" fill="#FF7373" />
	<path d="M5 20.75C4.93 20.75 4.865 20.72 4.805 20.66C4.735 20.6 4.7 20.515 4.7 20.405C4.7 20.325 4.725 20.225 4.775 20.105C4.825 19.985 4.915 19.855 5.045 19.715C5.275 19.205 5.49 18.79 5.69 18.47C5.9 18.15 6.135 17.805 6.395 17.435C6.265 17.415 6.17 17.37 6.11 17.3C6.05 17.22 6.02 17.13 6.02 17.03C6.02 16.87 6.065 16.72 6.155 16.58C6.255 16.43 6.345 16.355 6.425 16.355C6.545 16.355 6.67 16.34 6.8 16.31C6.94 16.28 7.08 16.265 7.22 16.265C7.58 15.745 7.87 15.315 8.09 14.975C8.32 14.635 8.505 14.36 8.645 14.15C8.785 13.94 8.905 13.765 9.005 13.625C9.115 13.485 9.225 13.355 9.335 13.235C9.445 13.105 9.58 12.955 9.74 12.785C9.9 12.615 10.11 12.4 10.37 12.14C10.24 11.87 10.175 11.605 10.175 11.345C10.175 10.985 10.28 10.69 10.49 10.46C10.7 10.23 10.92 10.115 11.15 10.115C11.27 10.115 11.38 10.15 11.48 10.22C11.59 10.28 11.68 10.39 11.75 10.55C12.03 11.19 12.225 12.005 12.335 12.995C12.455 13.985 12.535 15.035 12.575 16.145C13.325 16.205 13.845 16.34 14.135 16.55C14.005 16.59 13.805 16.635 13.535 16.685C13.265 16.725 12.945 16.77 12.575 16.82C12.575 17.22 12.58 17.625 12.59 18.035C12.6 18.445 12.605 18.85 12.605 19.25C12.605 19.81 12.56 20.2 12.47 20.42C12.39 20.64 12.31 20.75 12.23 20.75C12.12 20.75 12.065 20.65 12.065 20.45C12.065 19.78 12.035 19.155 11.975 18.575C11.915 17.985 11.83 17.435 11.72 16.925C11.23 16.975 10.71 17.03 10.16 17.09C9.62 17.14 9.08 17.19 8.54 17.24C8 17.29 7.5 17.34 7.04 17.39C6.72 17.89 6.4 18.415 6.08 18.965C5.77 19.515 5.47 20.075 5.18 20.645C5.15 20.715 5.09 20.75 5 20.75ZM7.85 16.205C8.44 16.155 9.06 16.125 9.71 16.115C10.36 16.095 10.975 16.085 11.555 16.085C11.385 15.375 11.2 14.75 11 14.21C10.81 13.66 10.66 13.19 10.55 12.8C10.29 13.06 9.915 13.485 9.425 14.075C8.945 14.665 8.42 15.375 7.85 16.205ZM16.0122 20.69C15.9422 20.69 15.8622 20.64 15.7722 20.54C15.6922 20.45 15.6172 20.28 15.5472 20.03C15.1272 20.06 14.7772 20.075 14.4972 20.075C14.4072 20.075 14.3272 20.07 14.2572 20.06C14.1972 20.06 14.1522 20.055 14.1222 20.045C14.0822 20.035 14.0172 20.015 13.9272 19.985C13.8472 19.955 13.7722 19.915 13.7022 19.865C13.6422 19.815 13.6222 19.765 13.6422 19.715C13.7222 19.595 13.8172 19.485 13.9272 19.385C14.0472 19.285 14.2822 19.235 14.6322 19.235C14.7722 19.235 14.8672 19.24 14.9172 19.25C14.9772 19.26 15.0072 19.275 15.0072 19.295C15.0072 19.325 14.9672 19.355 14.8872 19.385C14.8072 19.415 14.7672 19.44 14.7672 19.46C14.7672 19.47 14.8122 19.475 14.9022 19.475C14.9522 19.475 15.0222 19.475 15.1122 19.475C15.2022 19.465 15.3022 19.455 15.4122 19.445C15.4122 19.405 15.4072 19.365 15.3972 19.325C15.3972 19.275 15.3972 19.23 15.3972 19.19C15.3972 18.76 15.4572 18.24 15.5772 17.63C15.7072 17.02 15.8722 16.385 16.0722 15.725C16.2822 15.055 16.5022 14.42 16.7322 13.82C16.9722 13.22 17.1972 12.71 17.4072 12.29C16.9772 12.36 16.5772 12.425 16.2072 12.485C15.8372 12.545 15.5372 12.595 15.3072 12.635C15.0772 12.665 14.9472 12.675 14.9172 12.665C14.8072 12.605 14.7522 12.475 14.7522 12.275C14.7522 12.075 14.8072 11.875 14.9172 11.675C15.0372 11.475 15.1822 11.375 15.3522 11.375C15.4822 11.375 15.5872 11.425 15.6672 11.525C15.7472 11.625 15.8772 11.675 16.0572 11.675C16.0772 11.675 16.1022 11.675 16.1322 11.675C16.1622 11.665 16.1972 11.655 16.2372 11.645C16.3472 11.615 16.5622 11.59 16.8822 11.57C17.2122 11.54 17.5872 11.52 18.0072 11.51C18.1572 11.41 18.3172 11.345 18.4872 11.315C18.6572 11.275 18.8222 11.255 18.9822 11.255C19.1522 11.255 19.2972 11.275 19.4172 11.315C19.5472 11.345 19.6322 11.39 19.6722 11.45C19.8422 11.45 19.9972 11.45 20.1372 11.45C20.2872 11.44 20.4272 11.435 20.5572 11.435C20.7872 11.435 20.9772 11.44 21.1272 11.45C21.2772 11.45 21.3672 11.46 21.3972 11.48C21.4772 11.51 21.5322 11.545 21.5622 11.585C21.5922 11.625 21.6072 11.66 21.6072 11.69C21.6072 11.77 21.5622 11.835 21.4722 11.885C21.3822 11.925 21.3272 11.925 21.3072 11.885C21.3072 11.835 21.2022 11.81 20.9922 11.81C20.8222 11.81 20.5972 11.825 20.3172 11.855C20.0372 11.885 19.7222 11.925 19.3722 11.975C19.0422 12.465 18.7072 13.03 18.3672 13.67C18.0372 14.3 17.7272 14.96 17.4372 15.65C17.1472 16.33 16.8922 16.995 16.6722 17.645C16.4622 18.295 16.3122 18.885 16.2222 19.415C16.6022 19.395 16.9972 19.38 17.4072 19.37C17.8272 19.36 18.2072 19.355 18.5472 19.355C18.8572 19.355 19.1022 19.365 19.2822 19.385C19.4722 19.395 19.5422 19.42 19.4922 19.46C19.2922 19.63 19.0872 19.75 18.8772 19.82C18.6772 19.88 18.4172 19.915 18.0972 19.925C17.7772 19.935 17.3372 19.95 16.7772 19.97C16.6772 19.97 16.5722 19.975 16.4622 19.985C16.3622 19.985 16.2622 19.99 16.1622 20C16.1522 20.19 16.1522 20.375 16.1622 20.555C16.1622 20.645 16.1122 20.69 16.0122 20.69Z" fill="black" />
	<path d="M3 24.3054C3.6348 24.2657 4.18473 23.6987 4.82002 23.6987C5.38385 23.6987 5.97199 23.3772 6.54566 23.3347C7.21055 23.2854 7.86105 22.9707 8.52746 22.9707C9.31879 22.9707 10.558 22.8358 11.3114 22.546C12.0856 22.2483 13.0988 22.2427 13.9134 22.2427C14.4722 22.2427 15.0516 22.1213 15.6323 22.1213C17.717 22.1213 19.7268 22 21.8068 22" stroke="black" stroke-linecap="round" />
</svg>
